:SAMPLES-PER-SECOND 30
:FULLY-SPECIFIED
:DEGREES
212
root  60.8028 37.6112 -31.1196 26.9774 15.127 2.9086
RightUpLeg  -58.9337 -22.2992 10.0862
RightLeg  27.7381 3.25821 1.6269
RightFoot  3.91302 0.704404 -5.05809
RightToes  0.00048216 0.542163 -0.142577
Spine  62.3144 -4.1413 5.34571
Spine1  10.4005 -0.193798 -2.05357
HEad  -39.017 -4.27411 5.90105
LeftShoulder1  9.85417 -26.2936 -26.7408
LeftArm  -70.8354 -58.252 25.7272
LeftForeArm  -1.20783 -14.6452 -1.79332
LeftHand  -0.25398 0.0180481 5.50724
RightShoulder  1.7742 10.1308 5.22951
RightArm  -35.7024 77.1414 33.0815
RightForeArm  -11.659 12.4322 4.59962
RightHand  -1.76545 13.2108 -11.5055
LeftUpLeg  -56.5852 28.83 -16.914
LeftLeg  25.0377 -1.93526 -0.646478
LeftFoot  3.16058 -0.248223 1.7987
LeftToes  1.06244e-005 4.65854e-005 -8.18505e-006
213
root  61.5201 37.5342 -31.1697 29.158 14.237 2.6012
RightUpLeg  -61.3849 -22.294 10.5454
RightLeg  27.2087 4.01668 2.01348
RightFoot  4.84716 0.589171 -3.90549
RightToes  0.00048216 0.542163 -0.142577
Spine  63.5239 -4.23567 5.42678
Spine1  9.27832 0.261303 -3.02808
HEad  -40.5007 -4.67848 6.40045
LeftShoulder1  9.38117 -26.7576 -24.5834
LeftArm  -73.6499 -59.1481 28.0398
LeftForeArm  -1.81451 -13.1571 -1.0374
LeftHand  -0.25398 0.0180481 5.50724
RightShoulder  1.69825 10.0394 4.69507
RightArm  -47.0196 77.89 21.4478
RightForeArm  -11.199 10.8963 3.92975
RightHand  -1.51096 12.9096 -10.0858
LeftUpLeg  -59.8728 28.7651 -19.6632
LeftLeg  26.3279 -1.97092 -0.716825
LeftFoot  2.21468 -0.386382 3.13832
LeftToes  1.06244e-005 4.65854e-005 -8.18505e-006
214
root  62.1627 37.4415 -31.1826 31.1738 13.7107 2.35927
RightUpLeg  -63.5244 -22.1102 10.6147
RightLeg  26.9222 4.37679 2.18652
RightFoot  5.51494 0.47947 -2.9762
RightToes  0.00048216 0.542163 -0.142577
Spine  64.6634 -4.30971 5.6044
Spine1  8.18914 0.532264 -3.45918
HEad  -41.78 -5.19551 6.62116
LeftShoulder1  8.86478 -27.4621 -22.0728
LeftArm  -75.9001 -59.4873 30.3421
LeftForeArm  -2.41848 -11.5323 -0.287336
LeftHand  -0.25398 0.0180481 5.50724
RightShoulder  1.59519 9.87245 4.00239
RightArm  -58.4079 78.1265 9.63249
RightForeArm  -11.203 9.33236 3.17549
RightHand  -1.29981 12.6925 -8.85488
LeftUpLeg  -62.8053 28.2629 -21.9009
LeftLeg  27.7479 -1.79542 -0.67728
LeftFoot  1.1324 -0.464346 4.18179
LeftToes  1.06244e-005 4.65854e-005 -8.18505e-006
215
root  62.7191 37.3158 -31.1791 32.8261 13.4328 2.11073
RightUpLeg  -65.3375 -21.8015 10.3583
RightLeg  27.0613 4.41215 2.21895
RightFoot  5.84865 0.411394 -2.45452
RightToes  0.00048216 0.542163 -0.142577
Spine  65.799 -4.4315 5.78814
Spine1  7.44896 0.639214 -3.66328
HEad  -42.9088 -5.59199 6.84344
LeftShoulder1  8.20303 -27.926 -19.3735
LeftArm  -77.8326 -59.5555 32.9496
LeftForeArm  -3.79862 -9.69271 0.247554
LeftHand  -0.25398 0.0180481 5.50724
RightShoulder  1.49376 9.7834 3.2296
RightArm  -69.0455 77.916 -1.57103
RightForeArm  -11.727 8.18534 2.53228
RightHand  -1.10225 12.3723 -7.72011
LeftUpLeg  -65.2395 27.4239 -23.3494
LeftLeg  29.261 -1.43743 -0.520526
LeftFoot  -0.0904615 -0.4625 4.69555
LeftToes  1.06244e-005 4.65854e-005 -8.18505e-006
216
root  63.2054 37.1518 -31.175 34.0154 13.1114 1.66197
RightUpLeg  -66.8583 -21.3402 10.09
RightLeg  27.5641 4.28524 2.19662
RightFoot  5.9893 0.315835 -1.80192
RightToes  0.00048216 0.542163 -0.142577
Spine  67.0245 -4.48888 5.84601
Spine1  7.02262 0.796336 -3.89124
HEad  -43.9121 -5.71307 7.03566
LeftShoulder1  7.50595 -27.9324 -16.9907
LeftArm  -80.1427 -59.6229 35.625
LeftForeArm  -5.79107 -8.0556 0.642933
LeftHand  -0.25398 0.0180481 5.50724
RightShoulder  1.37421 9.69779 2.28385
RightArm  -77.2015 77.2646 -10.2786
RightForeArm  -12.2705 7.82907 2.12129
RightHand  -0.920529 12.0631 -6.64598
LeftUpLeg  -67.3233 26.7002 -24.1361
LeftLeg  31.0342 -0.920227 -0.241238
LeftFoot  -1.35359 -0.436442 5.08752
LeftToes  1.06244e-005 4.65854e-005 -8.18505e-006
217
root  63.6495 36.9655 -31.1693 34.9442 12.7083 1.10876
RightUpLeg  -68.203 -20.8314 9.89819
RightLeg  28.2269 4.15573 2.18573
RightFoot  5.97899 0.183093 -0.931852
RightToes  0.00048216 0.542163 -0.142577
Spine  68.1454 -4.47772 5.79489
Spine1  6.72189 0.977394 -4.12698
HEad  -44.7368 -5.61773 6.99161
LeftShoulder1  6.90588 -27.7391 -15.0794
LeftArm  -82.5866 -59.5917 37.7396
LeftForeArm  -7.71935 -7.0555 1.14781
LeftHand  -0.25398 0.0180481 5.50724
RightShoulder  1.21236 9.46615 1.07832
RightArm  -82.101 76.3989 -15.5176
RightForeArm  -12.5184 8.13868 1.89282
RightHand  -0.813691 12.0606 -5.94152
LeftUpLeg  -69.1829 26.1501 -24.6219
LeftLeg  32.9727 -0.334518 0.128819
LeftFoot  -2.73754 -0.406631 5.62302
LeftToes  1.06244e-005 4.65854e-005 -8.18505e-006
218
root  64.0534 36.7746 -31.159 35.7799 12.328 0.654449
RightUpLeg  -69.42 -20.3693 9.61888
RightLeg  28.9407 4.02535 2.17533
RightFoot  5.77321 0.0773734 -0.25102
RightToes  0.00048216 0.542163 -0.142577
Spine  69.0189 -4.54288 5.67649
Spine1  6.49655 0.995172 -4.42534
HEad  -45.3017 -5.38096 6.72709
LeftShoulder1  6.35132 -27.4943 -13.3194
LeftArm  -84.3508 -59.2535 38.9797
LeftForeArm  -9.04199 -6.66048 1.65569
LeftHand  -0.25398 0.0180481 5.50724
RightShoulder  1.0527 9.21888 -0.148796
RightArm  -85.0661 75.6094 -18.6986
RightForeArm  -12.8048 8.60489 1.75937
RightHand  -0.834895 12.3354 -5.99686
LeftUpLeg  -70.8345 25.5885 -24.9855
LeftLeg  34.8607 0.220804 0.534901
LeftFoot  -4.21794 -0.348498 5.99665
LeftToes  1.06244e-005 4.65854e-005 -8.18505e-006
219
root  64.3899 36.5875 -31.1486 36.4067 11.9499 0.26886
RightUpLeg  -70.4057 -19.8495 9.16513
RightLeg  29.7279 3.7769 2.09502
RightFoot  5.45481 0.0109195 0.179118
RightToes  0.00048216 0.542163 -0.142577
Spine  69.8618 -4.65321 5.72858
Spine1  6.09269 1.18545 -5.16443
HEad  -45.4892 -5.60222 6.64317
LeftShoulder1  5.78798 -27.8441 -11.1374
LeftArm  -84.6424 -58.7363 38.8042
LeftForeArm  -9.64549 -6.56447 2.03663
LeftHand  -0.25398 0.0180481 5.50724
RightShoulder  1.02574 8.77111 0.00764033
RightArm  -87.4167 75.0236 -22.2059
RightForeArm  -13.3543 8.76548 1.88722
RightHand  -0.921556 12.5285 -6.49978
LeftUpLeg  -72.2741 25.1027 -25.1732
LeftLeg  36.6902 0.759776 0.985182
LeftFoot  -5.52448 -0.274545 6.05114
LeftToes  1.06244e-005 4.65854e-005 -8.18505e-006
220
root  64.6466 36.4137 -31.1399 36.7103 11.5537 -0.172531
RightUpLeg  -71.0868 -19.2504 8.70753
RightLeg  30.5714 3.45807 1.96683
RightFoot  5.15346 -0.0581924 0.644932
RightToes  0.00048216 0.542163 -0.142577
Spine  70.8788 -4.66759 6.09413
Spine1  5.34737 1.83549 -6.31062
HEad  -45.3584 -6.52442 6.81048
LeftShoulder1  5.27552 -29.0164 -8.60447
LeftArm  -84.006 -58.3654 37.428
LeftForeArm  -9.61718 -6.6304 2.3517
LeftHand  -0.25398 0.0180481 5.50724
RightShoulder  1.12832 7.78034 1.79
RightArm  -89.5586 74.6583 -26.4142
RightForeArm  -13.6892 8.534 2.2306
RightHand  -0.94462 12.4881 -6.66035
LeftUpLeg  -73.4312 24.8579 -25.1206
LeftLeg  38.4327 1.29181 1.48387
LeftFoot  -6.56243 -0.215305 6.10542
LeftToes  1.06244e-005 4.65854e-005 -8.18505e-006
221
root  64.8506 36.2616 -31.1279 36.8986 11.2509 -0.603897
RightUpLeg  -71.6558 -18.8139 8.47223
RightLeg  31.3611 3.29957 1.92793
RightFoot  4.87288 -0.136944 1.19536
RightToes  0.00048216 0.542163 -0.142577
Spine  71.5591 -4.37067 5.11452
Spine1  6.04005 1.09436 -5.04325
HEad  -45.9718 -4.70953 5.15724
LeftShoulder1  4.94771 -26.2804 -9.07585
LeftArm  -86.46 -58.2789 41.0191
LeftForeArm  -10.7525 -6.75874 2.13732
LeftHand  -0.25398 0.0180481 5.50724
RightShoulder  0.658737 7.49174 -2.74772
RightArm  -94.4875 75.1675 -27.5397
RightForeArm  -12.9646 8.26668 1.00071
RightHand  -0.873689 12.3373 -6.24972
LeftUpLeg  -74.2873 24.6786 -24.9334
LeftLeg  39.8675 1.74138 1.94911
LeftFoot  -7.52863 -0.165849 6.34233
LeftToes  1.06244e-005 4.65854e-005 -8.18505e-006
222
root  65.0316 36.1271 -31.113 37.2115 11.108 -0.928299
RightUpLeg  -72.3398 -18.674 8.49973
RightLeg  32.0282 3.36157 2.02232
RightFoot  4.56413 -0.19858 1.64445
RightToes  0.00048216 0.542163 -0.142577
Spine  72.1223 -4.47321 5.34488
Spine1  5.66688 1.37873 -5.72001
HEad  -45.706 -4.72401 5.03239
LeftShoulder1  4.50008 -26.6259 -7.25299
LeftArm  -86.7274 -58.2349 40.6141
LeftForeArm  -10.1049 -6.86217 2.39497
LeftHand  -0.25398 0.0180481 5.50724
RightShoulder  0.617418 6.87929 -2.77542
RightArm  -94.9472 74.6814 -27.9137
RightForeArm  -13.0414 8.17955 0.811318
RightHand  -0.841596 12.2125 -6.07875
LeftUpLeg  -75.0251 24.3432 -24.7605
LeftLeg  40.9597 2.08047 2.33062
LeftFoot  -8.47289 -0.112929 6.53743
LeftToes  1.06244e-005 4.65854e-005 -8.18505e-006
223
root  65.1854 36.0016 -31.1027 37.5452 11.0213 -1.27519
RightUpLeg  -73.0337 -18.5676 8.68227
RightLeg  32.5901 3.42909 2.11441
RightFoot  4.2758 -0.235347 1.92868
RightToes  0.00048216 0.542163 -0.142577
Spine  72.5312 -4.77389 5.99577
Spine1  4.91316 2.02991 -7.35808
HEad  -44.9568 -5.31382 5.70866
LeftShoulder1  3.89098 -28.2468 -4.19084
LeftArm  -85.6821 -58.0591 38.34
LeftForeArm  -9.00882 -6.68788 2.85746
LeftHand  -0.25398 0.0180481 5.50724
RightShoulder  0.797558 6.54169 -0.530488
RightArm  -93.5312 73.7646 -28.4096
RightForeArm  -13.5387 8.11398 1.17824
RightHand  -0.861601 12.0368 -6.26433
LeftUpLeg  -75.845 24.0257 -24.5792
LeftLeg  42.0029 2.36326 2.68056
LeftFoot  -9.19634 -0.0671996 6.53916
LeftToes  1.06244e-005 4.65854e-005 -8.18505e-006
224
root  65.2965 35.8917 -31.0999 37.6895 10.9223 -1.76456
RightUpLeg  -73.4739 -18.2697 8.90124
RightLeg  33.0488 3.36955 2.1116
RightFoot  4.09082 -0.260796 2.13052
RightToes  0.00048216 0.542163 -0.142577
Spine  72.8548 -4.79717 5.82157
Spine1  4.85703 1.96931 -7.73296
HEad  -44.6724 -4.56339 5.36984
LeftShoulder1  3.42901 -27.7975 -2.75726
LeftArm  -85.8225 -57.806 38.3028
LeftForeArm  -9.12423 -6.43563 3.0704
LeftHand  -0.25398 0.0180481 5.50724
RightShoulder  0.769968 6.55112 -0.84072
RightArm  -95.2328 73.6675 -29.8226
RightForeArm  -13.0361 7.75031 0.882702
RightHand  -0.82942 11.8407 -6.11081
LeftUpLeg  -76.6595 23.9501 -24.2807
LeftLeg  43.1001 2.60637 3.01823
LeftFoot  -9.64461 -0.0381707 6.49545
LeftToes  1.06244e-005 4.65854e-005 -8.18505e-006
